<?xml version="1.0" encoding="UTF-8"?>
<svg xmlns="http://www.w3.org/2000/svg" xmlns:xlink="http://www.w3.org/1999/xlink" width="512px" height="512px" viewBox="0 0 512 512" version="1.1">
<g id="surface1">
<path style=" stroke:none;fill-rule:nonzero;fill:rgb(1.176471%,1.176471%,1.176471%);fill-opacity:1;" d="M 88.398438 500.351562 L 88.398438 387.007812 C 32.09375 346.351562 0 287.90625 0 225.390625 C 0 107.535156 114.839844 11.648438 256 11.648438 C 397.160156 11.648438 512 107.535156 512 225.390625 C 512 343.246094 397.160156 439.136719 256 439.136719 C 239.273438 439.136719 222.433594 437.738281 205.851562 434.972656 Z M 256 46.085938 C 133.832031 46.085938 34.4375 126.523438 34.4375 225.390625 C 34.4375 278.988281 63.863281 329.402344 115.179688 363.691406 L 122.828125 368.804688 L 122.828125 441.765625 L 199.878906 398.882812 L 205.996094 400.027344 C 222.488281 403.121094 239.308594 404.695312 256 404.695312 C 378.171875 404.695312 477.558594 324.261719 477.558594 225.390625 C 477.5625 126.523438 378.171875 46.085938 256 46.085938 Z M 256 46.085938 "/>
</g>
</svg>
