<?xml version="1.0" encoding="UTF-8"?>
<svg xmlns="http://www.w3.org/2000/svg" xmlns:xlink="http://www.w3.org/1999/xlink" width="512px" height="512px" viewBox="0 0 512 512" version="1.1">
<g id="surface1">
<path style=" stroke:none;fill-rule:evenodd;fill:rgb(1.568627%,1.568627%,1.568627%);fill-opacity:1;" d="M 187 42.910156 C 179.238281 44.507812 172.492188 51.128906 171.09375 58.523438 C 170.574219 61.261719 169.824219 97.136719 169.421875 138.25 L 168.695312 213 L 124.097656 213.003906 C 80.5625 213.007812 79.414062 213.058594 76 215.109375 C 67.488281 220.21875 63.6875 226.410156 63.675781 235.191406 C 63.667969 240.578125 63.976562 241.289062 69.53125 248.691406 C 86.027344 270.664062 198.75 412.191406 228.867188 448.742188 C 236.683594 458.230469 244.386719 466.664062 245.988281 467.492188 C 249.304688 469.207031 258.800781 469.484375 264.007812 468.015625 C 265.929688 467.472656 268.398438 465.96875 269.5 464.671875 C 294.257812 435.492188 411.445312 289.515625 439.304688 253.148438 L 448 241.800781 L 448 235.285156 C 448 227.222656 444.679688 220.433594 438.699219 216.292969 L 434.671875 213.5 L 388.351562 213.222656 L 342.03125 212.941406 L 342.039062 138.722656 C 342.042969 91.488281 341.667969 62.507812 341.007812 59.023438 C 340.214844 54.859375 339.074219 52.628906 336.234375 49.691406 C 328.777344 41.992188 334.359375 42.519531 258.5 42.34375 C 221.101562 42.261719 188.925781 42.515625 187 42.910156 M 214 171 L 214 256 L 177.25 256.074219 C 157.035156 256.113281 138.511719 256.453125 136.082031 256.824219 L 131.667969 257.5 L 155.496094 287.5 C 200.445312 344.085938 254.769531 411.320312 255.894531 411.761719 C 256.261719 411.902344 258.152344 410.101562 260.097656 407.761719 C 267.074219 399.363281 329.175781 321.875 354.476562 290 L 380.273438 257.5 L 375.886719 256.824219 C 373.472656 256.453125 354.960938 256.113281 334.75 256.074219 L 298 256 L 298 86 L 214 86 L 214 171 "/>
<path style=" stroke:none;fill-rule:evenodd;fill:rgb(45.098039%,57.647059%,98.431373%);fill-opacity:1;" d="M 214 171 L 214 256 L 177.25 256.074219 C 157.035156 256.113281 138.511719 256.453125 136.082031 256.824219 L 131.667969 257.5 L 155.496094 287.5 C 200.445312 344.085938 254.769531 411.320312 255.894531 411.761719 C 256.261719 411.902344 258.152344 410.101562 260.097656 407.761719 C 267.074219 399.363281 329.175781 321.875 354.476562 290 L 380.273438 257.5 L 375.886719 256.824219 C 373.472656 256.453125 354.960938 256.113281 334.75 256.074219 L 298 256 L 298 86 L 214 86 L 214 171 "/>
</g>
</svg>
