<svg xmlns="http://www.w3.org/2000/svg" width="512" height="512" viewBox="0 0 512 512" version="1.1">
    <path
        d="M 187 42.910 C 179.240 44.506, 172.492 51.129, 171.092 58.525 C 170.575 61.261, 169.824 97.138, 169.423 138.250 L 168.696 213 124.098 213.004 C 80.564 213.007, 79.416 213.058, 76 215.109 C 67.488 220.219, 63.688 226.410, 63.675 235.190 C 63.667 240.579, 63.976 241.291, 69.530 248.690 C 86.029 270.665, 198.750 412.190, 228.869 448.744 C 236.684 458.229, 244.388 466.666, 245.989 467.494 C 249.303 469.208, 258.801 469.483, 264.007 468.015 C 265.928 467.473, 268.400 465.969, 269.500 464.673 C 294.259 435.493, 411.447 289.514, 439.305 253.149 L 448 241.799 448 235.285 C 448 227.221, 444.678 220.435, 438.700 216.292 L 434.673 213.500 388.352 213.221 L 342.030 212.942 342.038 138.721 C 342.043 91.490, 341.668 62.509, 341.006 59.025 C 340.215 54.859, 339.074 52.628, 336.233 49.693 C 328.779 41.991, 334.358 42.518, 258.500 42.345 C 221.100 42.260, 188.925 42.514, 187 42.910 M 214 171 L 214 256 177.250 256.074 C 157.037 256.115, 138.513 256.452, 136.083 256.824 L 131.667 257.500 155.497 287.500 C 200.446 344.087, 254.768 411.320, 255.894 411.760 C 256.260 411.903, 258.152 410.103, 260.098 407.760 C 267.073 399.364, 329.177 321.874, 354.477 290 L 380.274 257.500 375.887 256.824 C 373.474 256.452, 354.962 256.115, 334.750 256.074 L 298 256 298 171 L 298 86 256 86 L 214 86 214 171"
        stroke="none" fill="#040404" fill-rule="evenodd" />
    <path
        d="M 214 171 L 214 256 177.250 256.074 C 157.037 256.115, 138.513 256.452, 136.083 256.824 L 131.667 257.500 155.497 287.500 C 200.446 344.087, 254.768 411.320, 255.894 411.760 C 256.260 411.903, 258.152 410.103, 260.098 407.760 C 267.073 399.364, 329.177 321.874, 354.477 290 L 380.274 257.500 375.887 256.824 C 373.474 256.452, 354.962 256.115, 334.750 256.074 L 298 256 298 171 L 298 86 256 86 L 214 86 214 171"
        stroke="none" fill="#7393fb" fill-rule="evenodd" />
</svg>