<?xml version="1.0" encoding="UTF-8"?>
<svg xmlns="http://www.w3.org/2000/svg" xmlns:xlink="http://www.w3.org/1999/xlink" width="512px" height="512px" viewBox="0 0 512 512" version="1.1">
<g id="surface1">
<path style="fill-rule:nonzero;fill:rgb(100%,100%,100%);fill-opacity:1;stroke-width:0.01024;stroke-linecap:butt;stroke-linejoin:miter;stroke:rgb(100%,100%,100%);stroke-opacity:1;stroke-miterlimit:4;" d="M 532.53125 661.40625 C 520.015625 673.90625 520.015625 694.15625 532.523438 706.65625 C 538.78125 712.914062 546.960938 716.03125 555.148438 716.03125 C 563.34375 716.03125 571.515625 712.914062 577.773438 706.65625 L 766.78125 512.65625 L 577.773438 318.640625 C 565.28125 306.140625 545.023438 306.140625 532.523438 318.640625 C 520.015625 331.132812 520.015625 351.390625 532.523438 363.890625 L 648.273438 479.648438 L 31.835938 479.648438 C 14.15625 479.648438 -0.164062 493.984375 -0.164062 511.648438 C -0.164062 529.3125 14.15625 543.648438 31.835938 543.648438 L 650.289062 543.648438 Z M 960.15625 0 L 384.15625 0 C 348.796875 0 320.140625 28.65625 320.140625 64 L 320.140625 352 L 384.570312 352 L 384.570312 103.023438 C 384.570312 81.648438 401.921875 64.304688 423.296875 64.304688 L 920 64.304688 C 941.40625 64.304688 958.71875 81.648438 958.71875 103.023438 L 959.726562 921.3125 C 959.726562 942.6875 942.414062 960.03125 921.007812 960.03125 L 423.3125 960.03125 C 401.9375 960.03125 384.59375 942.6875 384.59375 921.3125 L 384.59375 670.945312 L 320.15625 671.023438 L 320.15625 960 C 320.15625 995.34375 348.8125 1024 384.171875 1024 L 960.171875 1024 C 995.515625 1024 1024.171875 995.34375 1024.171875 960 L 1024.171875 64 C 1024.15625 28.65625 995.5 0 960.15625 0 Z M 960.15625 0 " transform="matrix(0.5,0,0,0.5,0,0)"/>
</g>
</svg>
