<?xml version="1.0" encoding="UTF-8"?>
<svg xmlns="http://www.w3.org/2000/svg" xmlns:xlink="http://www.w3.org/1999/xlink" width="512px" height="512px" viewBox="0 0 512 512" version="1.1">
<g id="surface1">
<path style=" stroke:none;fill-rule:nonzero;fill:rgb(0%,0%,0%);fill-opacity:1;" d="M 476.953125 418.515625 C 422.542969 393.941406 420.472656 288.472656 420.433594 285.808594 L 420.433594 215.050781 C 420.433594 146.949219 378.820312 88.390625 319.683594 63.457031 C 319.554688 28.445312 291.039062 0 256 0 C 220.960938 0 192.445312 28.445312 192.316406 63.457031 C 133.183594 88.390625 91.570312 146.949219 91.570312 215.050781 L 91.570312 285.808594 C 91.53125 288.46875 89.460938 393.941406 35.046875 418.511719 C 28.851562 421.3125 25.445312 428.058594 26.875 434.707031 C 28.308594 441.359375 34.1875 446.109375 40.992188 446.109375 L 178.929688 446.109375 C 181.757812 461.664062 189.113281 476.136719 200.363281 487.855469 C 215.304688 503.425781 235.0625 512 256 512 C 276.933594 512 296.695312 503.425781 311.632812 487.855469 C 322.886719 476.136719 330.242188 461.664062 333.066406 446.109375 L 471.007812 446.109375 C 477.808594 446.109375 483.6875 441.359375 485.121094 434.707031 C 486.554688 428.058594 483.152344 421.3125 476.953125 418.515625 Z M 405.277344 367.988281 C 411 385.328125 419.097656 402.742188 430.582031 417.234375 L 81.417969 417.234375 C 92.902344 402.746094 101 385.332031 106.71875 367.988281 Z M 256 28.875 C 271.851562 28.875 285.25 39.523438 289.445312 54.042969 C 278.640625 51.800781 267.457031 50.621094 256 50.621094 C 244.546875 50.621094 233.359375 51.800781 222.558594 54.042969 C 226.75 39.527344 240.152344 28.875 256 28.875 Z M 120.445312 285.898438 L 120.445312 215.050781 C 120.445312 140.304688 181.253906 79.496094 256 79.496094 C 330.746094 79.496094 391.558594 140.304688 391.558594 215.050781 L 391.558594 286.015625 C 391.574219 288.1875 391.914062 311.011719 397.667969 339.109375 L 114.332031 339.109375 C 120.089844 310.984375 120.429688 288.121094 120.445312 285.898438 Z M 256 483.125 C 233.964844 483.125 214.730469 467.238281 208.558594 446.109375 L 303.441406 446.109375 C 297.269531 467.238281 278.039062 483.125 256 483.125 Z M 256 483.125 "/>
<path style=" stroke:none;fill-rule:nonzero;fill:rgb(0%,0%,0%);fill-opacity:1;" d="M 256 99.753906 C 193.882812 99.753906 143.347656 150.289062 143.347656 212.402344 C 143.347656 220.378906 149.8125 226.84375 157.785156 226.84375 C 165.757812 226.84375 172.222656 220.378906 172.222656 212.402344 C 172.222656 166.210938 209.804688 128.628906 256.003906 128.628906 C 263.976562 128.628906 270.441406 122.164062 270.441406 114.191406 C 270.4375 106.214844 263.976562 99.753906 256 99.753906 Z M 256 99.753906 "/>
</g>
</svg>
