<?xml version="1.0" encoding="UTF-8"?>
<svg xmlns="http://www.w3.org/2000/svg" xmlns:xlink="http://www.w3.org/1999/xlink" width="512px"
    height="512px" viewBox="0 0 512 512" version="1.1">
    <g id="surface1">
        <path style=" stroke:none;fill-rule:nonzero;fill:rgb(100%,100%,100%);fill-opacity:1;"
            d="M 433.039062 432.6875 C 333.914062 341.214844 181.710938 339.386719 80.417969 428.453125 L 58.289062 403.34375 C 172.429688 302.945312 343.960938 304.96875 455.703125 408.03125 Z M 433.039062 432.6875 " />
        <path style=" stroke:none;fill-rule:nonzero;fill:rgb(100%,100%,100%);fill-opacity:1;"
            d="M 254.359375 146.554688 C 300.214844 146.554688 337.386719 183.730469 337.386719 229.585938 C 337.386719 275.441406 300.214844 312.613281 254.359375 312.613281 C 208.503906 312.613281 171.332031 275.441406 171.332031 229.585938 C 171.386719 183.753906 208.527344 146.609375 254.359375 146.554688 M 254.359375 113.078125 C 190.015625 113.078125 137.851562 165.238281 137.851562 229.585938 C 137.851562 293.929688 190.015625 346.09375 254.359375 346.09375 C 318.707031 346.09375 370.867188 293.929688 370.867188 229.585938 C 370.867188 165.238281 318.707031 113.078125 254.359375 113.078125 Z M 254.359375 113.078125 " />
        <path style=" stroke:none;fill-rule:nonzero;fill:rgb(100%,100%,100%);fill-opacity:1;"
            d="M 256 33.53125 C 378.894531 33.53125 478.519531 133.15625 478.519531 256.050781 C 478.519531 378.945312 378.894531 478.570312 256 478.570312 C 133.105469 478.570312 33.480469 378.945312 33.480469 256.050781 C 33.617188 133.210938 133.164062 33.667969 256 33.53125 M 256 0.0507812 C 114.613281 0.0507812 0 114.664062 0 256.050781 C 0 397.433594 114.613281 512.050781 256 512.050781 C 397.386719 512.050781 512 397.433594 512 256.050781 C 512 114.664062 397.386719 0.0507812 256 0.0507812 Z M 256 0.0507812 " />
    </g>
</svg>