<?xml version="1.0" encoding="UTF-8"?>
<svg xmlns="http://www.w3.org/2000/svg" xmlns:xlink="http://www.w3.org/1999/xlink" width="512px" height="512px" viewBox="0 0 512 512" version="1.1">
<g id="surface1">
<path style=" stroke:none;fill-rule:nonzero;fill:rgb(0%,0%,0%);fill-opacity:1;" d="M 257.421875 156.445312 C 201.957031 156.445312 157.867188 200.535156 157.867188 256 C 157.867188 311.464844 201.957031 355.554688 257.421875 355.554688 C 312.890625 355.554688 356.976562 311.464844 356.976562 256 C 356.976562 200.535156 312.890625 156.445312 257.421875 156.445312 Z M 257.421875 327.109375 C 217.601562 327.109375 186.3125 295.820312 186.3125 256 C 186.3125 216.179688 217.601562 184.890625 257.421875 184.890625 C 297.246094 184.890625 328.535156 216.179688 328.535156 256 C 328.535156 295.820312 297.246094 327.109375 257.421875 327.109375 Z M 257.421875 327.109375 "/>
<path style=" stroke:none;fill-rule:nonzero;fill:rgb(0%,0%,0%);fill-opacity:1;" d="M 466.488281 209.066406 L 426.667969 196.265625 L 418.132812 174.933594 L 438.042969 137.957031 C 442.3125 129.421875 440.890625 118.042969 433.777344 110.933594 L 399.644531 76.800781 C 392.535156 69.6875 381.15625 68.265625 372.621094 72.535156 L 335.644531 92.445312 L 314.3125 83.910156 L 301.511719 44.089844 C 298.667969 35.554688 290.132812 28.445312 280.179688 28.445312 L 231.820312 28.445312 C 221.867188 28.445312 213.332031 35.554688 211.910156 45.511719 L 199.109375 85.332031 C 190.578125 86.753906 183.464844 89.601562 176.355469 93.867188 L 139.378906 73.957031 C 130.84375 69.6875 119.464844 71.109375 112.355469 78.222656 L 78.222656 112.355469 C 71.109375 119.464844 69.6875 130.84375 73.957031 139.378906 L 92.445312 174.933594 C 89.601562 182.042969 86.753906 190.578125 83.910156 197.6875 L 44.089844 210.488281 C 35.554688 213.332031 28.445312 221.867188 28.445312 231.820312 L 28.445312 280.179688 C 28.445312 290.132812 35.554688 298.667969 45.511719 301.511719 L 85.332031 314.3125 L 93.867188 335.644531 L 73.957031 372.621094 C 69.6875 381.15625 71.109375 392.535156 78.222656 399.644531 L 112.355469 433.777344 C 119.464844 440.890625 130.84375 442.3125 139.378906 438.042969 L 176.355469 418.132812 L 197.6875 426.667969 L 210.488281 467.910156 C 213.332031 476.445312 221.867188 483.554688 231.820312 483.554688 L 280.179688 483.554688 C 290.132812 483.554688 298.667969 476.445312 301.511719 467.910156 L 314.3125 426.667969 L 335.644531 418.132812 L 372.621094 438.042969 C 381.15625 442.3125 392.535156 440.890625 399.644531 433.777344 L 433.777344 399.644531 C 440.890625 392.535156 442.3125 381.15625 438.042969 372.621094 L 418.132812 335.644531 L 426.667969 314.3125 L 467.910156 301.511719 C 476.445312 298.667969 483.554688 290.132812 483.554688 280.179688 L 483.554688 231.820312 C 483.554688 221.867188 476.445312 211.910156 466.488281 209.066406 Z M 455.109375 275.910156 L 403.910156 291.554688 L 402.488281 298.667969 C 398.222656 308.621094 393.957031 318.578125 389.6875 328.535156 L 385.421875 335.644531 L 411.023438 382.578125 L 382.578125 411.023438 L 335.644531 385.421875 L 328.535156 389.6875 C 318.578125 395.378906 308.621094 399.644531 298.667969 402.488281 L 291.554688 403.910156 L 275.910156 455.109375 L 236.089844 455.109375 L 220.445312 403.910156 L 213.332031 402.488281 C 203.378906 398.222656 193.421875 393.957031 183.464844 389.6875 L 176.355469 385.421875 L 129.421875 411.023438 L 100.976562 382.578125 L 126.578125 335.644531 L 122.3125 328.535156 C 116.621094 318.578125 112.355469 308.621094 109.511719 298.667969 L 108.089844 291.554688 L 56.890625 275.910156 L 56.890625 236.089844 L 105.246094 221.867188 L 108.089844 214.753906 C 110.933594 203.378906 115.199219 193.421875 120.890625 183.464844 L 125.15625 176.355469 L 100.976562 129.421875 L 129.421875 100.976562 L 174.933594 126.578125 L 182.042969 122.3125 C 192 116.621094 201.957031 112.355469 213.332031 109.511719 L 220.445312 106.667969 L 236.089844 56.890625 L 275.910156 56.890625 L 291.554688 106.667969 L 298.667969 109.511719 C 308.621094 112.355469 318.578125 116.621094 328.535156 122.3125 L 335.644531 126.578125 L 382.578125 100.976562 L 411.023438 129.421875 L 385.421875 176.355469 L 389.6875 183.464844 C 395.378906 193.421875 399.644531 203.378906 402.488281 213.332031 L 403.910156 220.445312 L 455.109375 236.089844 Z M 455.109375 275.910156 "/>
</g>
</svg>
