<?xml version="1.0" encoding="UTF-8"?>
<svg xmlns="http://www.w3.org/2000/svg" xmlns:xlink="http://www.w3.org/1999/xlink" width="512px" height="512px" viewBox="0 0 512 512" version="1.1">
<g id="surface1">
<path style="fill-rule:nonzero;fill:rgb(100%,100%,100%);fill-opacity:1;stroke-width:0.144;stroke-linecap:butt;stroke-linejoin:miter;stroke:rgb(100%,100%,100%);stroke-opacity:1;stroke-miterlimit:4;" d="M 17.000061 18.999939 L 17.000061 16.5 C 17.000061 16.223877 17.223816 15.999939 17.499939 15.999939 C 17.776062 15.999939 18 16.223877 18 16.5 L 18 18.999939 L 20.499939 18.999939 C 20.776062 18.999939 21 19.223877 21 19.5 C 21 19.776123 20.776062 20.000061 20.499939 20.000061 L 18 20.000061 L 18 22.5 C 18 22.776123 17.776062 23.000061 17.499939 23.000061 C 17.223816 23.000061 17.000061 22.776123 17.000061 22.5 L 17.000061 20.000061 L 14.499939 20.000061 C 14.223816 20.000061 14.000061 19.776123 14.000061 19.5 C 14.000061 19.223877 14.223816 18.999939 14.499939 18.999939 Z M 14.042542 13.565186 C 13.418884 13.844604 12.727661 14.000061 12 14.000061 C 11.273804 14.000061 10.583862 13.845154 9.961304 13.566833 L 5.879333 15.422241 C 5.34375 15.665771 5.000061 16.199524 5.000061 16.787842 L 5.000061 17.499939 C 5.000061 18.328491 5.671509 18.999939 6.500061 18.999939 L 11.499939 18.999939 C 11.776062 18.999939 12 19.223877 12 19.5 C 12 19.776123 11.776062 20.000061 11.499939 20.000061 L 6.500061 20.000061 C 5.119263 20.000061 3.999939 18.880737 3.999939 17.499939 L 3.999939 16.787842 C 3.999939 15.807495 4.573059 14.917603 5.465515 14.511841 L 8.92218 12.940613 C 7.752136 12.025452 6.999939 10.600525 6.999939 9 C 6.999939 6.238586 9.238586 3.999939 12 3.999939 C 14.761414 3.999939 17.000061 6.238586 17.000061 9 C 17.000061 10.592834 16.255188 12.011902 15.094666 12.927429 L 17.696594 14.040344 C 17.950562 14.148926 18.068298 14.442627 17.959717 14.696594 C 17.851135 14.950562 17.557251 15.068298 17.303467 14.959717 Z M 12 12.999939 C 14.209167 12.999939 15.999939 11.209167 15.999939 9 C 15.999939 6.790833 14.209167 5.000061 12 5.000061 C 9.790833 5.000061 8.000061 6.790833 8.000061 9 C 8.000061 11.209167 9.790833 12.999939 12 12.999939 Z M 12 12.999939 " transform="matrix(21.333333,0,0,21.333333,0,0)"/>
</g>
</svg>
