<?xml version="1.0" encoding="UTF-8"?>
<svg xmlns="http://www.w3.org/2000/svg" xmlns:xlink="http://www.w3.org/1999/xlink" width="512px" height="512px" viewBox="0 0 512 512" version="1.1">
<g id="surface1">
<path style="fill-rule:nonzero;fill:rgb(100%,100%,100%);fill-opacity:1;stroke-width:1;stroke-linecap:butt;stroke-linejoin:miter;stroke:rgb(100%,100%,100%);stroke-opacity:1;stroke-miterlimit:4;" d="M 50.19989 23.799896 C 35.700226 23.799896 23.999786 35.500336 23.999786 50 C 23.999786 64.499664 35.700226 76.200104 50.19989 76.200104 C 64.700317 76.200104 76.399994 64.499664 76.399994 50 C 76.399994 35.500336 64.700317 23.799896 50.19989 23.799896 Z M 55.500031 6.999969 C 55.500031 4.100037 53.099823 1.699829 50.19989 1.699829 C 47.299957 1.699829 44.89975 4.100037 44.89975 6.999969 L 44.89975 18.699646 L 55.500031 18.699646 Z M 86.100006 24.60022 C 88.200378 22.499847 88.200378 19.100189 86.100006 17.099762 C 83.999634 15.000153 80.599976 15.000153 78.600311 17.099762 L 70.400238 25.299835 L 77.899933 32.800293 Z M 22.399902 32.900238 L 29.90036 25.39978 L 21.700287 17.199707 C 19.599915 15.100098 16.200256 15.100098 14.199829 17.199707 C 12.200165 19.300079 12.10022 22.699738 14.199829 24.700165 Z M 44.799805 93.000031 C 44.799805 95.899963 47.200012 98.300171 50.099945 98.300171 C 52.999878 98.300171 55.400085 95.899963 55.400085 93.000031 L 55.400085 81.300354 L 44.799805 81.300354 Z M 14.199829 75.39978 C 12.10022 77.500153 12.10022 80.899811 14.199829 82.900238 C 16.300201 84.899902 19.69986 84.999847 21.700287 82.900238 L 29.90036 74.700165 L 22.399902 67.199707 Z M 77.799988 67.099762 L 70.300293 74.60022 L 78.500366 82.800293 C 80.599976 84.899902 83.999634 84.899902 86.000061 82.800293 C 88.09967 80.699921 88.09967 77.300262 86.000061 75.299835 Z M 18.800354 44.69986 L 7.099915 44.69986 C 4.199982 44.69986 1.799774 47.100067 1.799774 50 C 1.799774 52.899933 4.199982 55.30014 7.099915 55.30014 L 18.800354 55.30014 Z M 92.900085 44.69986 L 81.199646 44.69986 L 81.199646 55.30014 L 92.900085 55.30014 C 95.800018 55.30014 98.200226 52.899933 98.200226 50 C 98.200226 47.100067 95.800018 44.69986 92.900085 44.69986 Z M 92.900085 44.69986 " transform="matrix(5.12,0,0,5.12,0,0)"/>
</g>
</svg>
