<?xml version="1.0" encoding="UTF-8"?>
<svg xmlns="http://www.w3.org/2000/svg" xmlns:xlink="http://www.w3.org/1999/xlink" width="512px" height="512px" viewBox="0 0 512 512" version="1.1">
<g id="surface1">
<path style=" stroke:none;fill-rule:nonzero;fill:rgb(0%,0%,0%);fill-opacity:1;" d="M 256 0 C 114.617188 0 0 114.617188 0 256 C 0 397.390625 114.617188 512 256 512 C 397.390625 512 512 397.390625 512 256 C 512 114.617188 397.390625 0 256 0 Z M 256 480.503906 C 132.488281 480.503906 32 379.511719 32 256 C 32 132.488281 132.488281 32 256 32 C 379.511719 32 480 132.488281 480 256 C 480 379.511719 379.511719 480.503906 256 480.503906 Z M 272 249.503906 L 272 96 C 272 87.167969 264.832031 80 256 80 C 247.167969 80 240 87.167969 240 96 L 240 256 C 240 260.527344 241.894531 264.601562 244.929688 267.503906 C 245.191406 267.816406 245.40625 268.152344 245.695312 268.449219 L 324.886719 347.648438 C 331.136719 353.886719 341.265625 353.886719 347.511719 347.648438 C 353.761719 341.398438 353.761719 331.265625 347.511719 325.015625 Z M 272 249.503906 "/>
</g>
</svg>
