<?xml version="1.0" encoding="UTF-8"?>
<svg xmlns="http://www.w3.org/2000/svg" xmlns:xlink="http://www.w3.org/1999/xlink" width="512px"
    height="512px" viewBox="0 0 512 512" version="1.1">
    <g id="surface1">
        <path
            style=" stroke:none;fill-rule:evenodd;fill:rgb(1.568627%,1.568627%,1.568627%);fill-opacity:1;"
            d="M 245.78125 44.554688 C 244.285156 45.367188 236.671875 53.789062 228.859375 63.265625 C 198.746094 99.8125 86.027344 241.339844 69.53125 263.308594 C 63.976562 270.710938 63.667969 271.421875 63.675781 276.808594 C 63.6875 285.589844 67.488281 291.78125 76 296.890625 C 79.414062 298.941406 80.5625 298.992188 124.097656 298.996094 L 168.695312 299 L 169.421875 373.75 C 169.824219 414.863281 170.574219 450.738281 171.09375 453.476562 C 171.78125 457.109375 173.039062 459.488281 175.765625 462.308594 C 183.242188 470.03125 177.304688 469.5 256 469.5 C 334.695312 469.5 328.757812 470.03125 336.234375 462.308594 C 339.074219 459.371094 340.214844 457.140625 341.007812 452.976562 C 341.667969 449.492188 342.042969 420.511719 342.039062 373.277344 L 342.03125 299.058594 L 388.351562 298.777344 L 434.671875 298.5 L 438.699219 295.707031 C 444.679688 291.566406 448 284.777344 448 276.714844 L 448 270.199219 L 439.304688 258.851562 C 411.445312 222.484375 294.257812 76.507812 269.5 47.328125 C 268.398438 46.03125 265.929688 44.527344 264.007812 43.984375 C 258.886719 42.539062 248.917969 42.855469 245.78125 44.554688 M 250.445312 106.273438 C 228.257812 133.625 174.980469 199.960938 155.492188 224.5 L 131.667969 254.5 L 136.082031 255.175781 C 138.511719 255.546875 157.035156 255.886719 177.25 255.925781 L 214 256 L 214 426 L 298 426 L 298 256 L 334.75 255.925781 C 354.960938 255.886719 373.472656 255.546875 375.886719 255.175781 L 380.273438 254.5 L 354.476562 222 C 329.195312 190.148438 267.074219 112.640625 260.105469 104.25 C 258.164062 101.910156 256.335938 100.011719 256.039062 100.023438 C 255.742188 100.03125 253.226562 102.847656 250.445312 106.273438 " />
        <path
            style=" stroke:none;fill-rule:evenodd;fill:rgb(98.431373%,26.27451%,1.568627%);fill-opacity:1;"
            d="M 250.445312 106.273438 C 228.257812 133.625 174.980469 199.960938 155.492188 224.5 L 131.667969 254.5 L 136.082031 255.175781 C 138.511719 255.546875 157.035156 255.886719 177.25 255.925781 L 214 256 L 214 426 L 298 426 L 298 256 L 334.75 255.925781 C 354.960938 255.886719 373.472656 255.546875 375.886719 255.175781 L 380.273438 254.5 L 354.476562 222 C 329.195312 190.148438 267.074219 112.640625 260.105469 104.25 C 258.164062 101.910156 256.335938 100.011719 256.039062 100.023438 C 255.742188 100.03125 253.226562 102.847656 250.445312 106.273438 " />
    </g>
</svg>