<?xml version="1.0" standalone="no"?>
<!DOCTYPE svg PUBLIC "-//W3C//DTD SVG 20010904//EN" "http://www.w3.org/TR/2001/REC-SVG-20010904/DTD/svg10.dtd">
<svg version="1.0" xmlns="http://www.w3.org/2000/svg"
    width="512.000000pt" height="512.000000pt" viewBox="0 0 512.000000 512.000000"
    preserveAspectRatio="xMidYMid meet">

    <g transform="translate(0.000000,512.000000) scale(0.100000,-0.100000)"
        fill="#000000" stroke="none">
        <path
            d="M1850 4670 c-34 -11 -67 -32 -87 -53 -64 -70 -63 -61 -63 -889 l0
-748 -443 0 -443 0 -55 -27 c-97 -50 -142 -157 -109 -258 17 -53 1755 -2223
1801 -2250 26 -15 52 -20 109 -20 57 0 83 5 109 20 42 25 1782 2195 1799 2244
40 115 -25 246 -137 280 -26 7 -177 11 -475 11 l-436 0 0 748 c0 840 1 823
-69 893 -69 69 -64 69 -795 69 -612 -1 -654 -2 -706 -20z m1130 -1270 l0 -850
415 0 c228 0 415 -3 415 -6 0 -11 -1241 -1559 -1250 -1559 -9 0 -1250 1548
-1250 1559 0 3 187 6 415 6 l415 0 0 850 0 850 420 0 420 0 0 -850z" />
    </g>
</svg>