<svg xmlns="http://www.w3.org/2000/svg" width="512" height="512" viewBox="0 0 512 512" version="1.1">
    <path
        d="M 245.780 44.556 C 244.284 45.368, 236.670 53.788, 228.860 63.266 C 198.748 99.811, 86.026 241.338, 69.530 263.310 C 63.976 270.709, 63.667 271.421, 63.675 276.810 C 63.688 285.590, 67.488 291.781, 76 296.891 C 79.416 298.942, 80.564 298.993, 124.098 298.996 L 168.696 299 169.423 373.750 C 169.824 414.863, 170.575 450.739, 171.092 453.475 C 171.780 457.110, 173.039 459.489, 175.767 462.307 C 183.243 470.032, 177.305 469.500, 256 469.500 C 334.695 469.500, 328.757 470.032, 336.233 462.307 C 339.074 459.372, 340.215 457.141, 341.006 452.975 C 341.668 449.491, 342.043 420.510, 342.038 373.279 L 342.030 299.058 388.352 298.779 L 434.673 298.500 438.700 295.708 C 444.678 291.565, 448 284.779, 448 276.715 L 448 270.201 439.305 258.851 C 411.447 222.486, 294.259 76.507, 269.500 47.327 C 268.400 46.031, 265.928 44.527, 264.007 43.985 C 258.887 42.541, 248.917 42.854, 245.780 44.556 M 250.447 106.272 C 228.257 133.626, 174.980 199.960, 155.492 224.500 L 131.667 254.500 136.083 255.176 C 138.513 255.548, 157.037 255.885, 177.250 255.926 L 214 256 214 341 L 214 426 256 426 L 298 426 298 341 L 298 256 334.750 255.926 C 354.962 255.885, 373.474 255.548, 375.887 255.176 L 380.274 254.500 354.477 222 C 329.194 190.147, 267.076 112.640, 260.107 104.250 C 258.165 101.912, 256.334 100.010, 256.038 100.022 C 255.742 100.033, 253.226 102.846, 250.447 106.272"
        stroke="none" fill="#040404" fill-rule="evenodd" />
    <path
        d="M 250.447 106.272 C 228.257 133.626, 174.980 199.960, 155.492 224.500 L 131.667 254.500 136.083 255.176 C 138.513 255.548, 157.037 255.885, 177.250 255.926 L 214 256 214 341 L 214 426 256 426 L 298 426 298 341 L 298 256 334.750 255.926 C 354.962 255.885, 373.474 255.548, 375.887 255.176 L 380.274 254.500 354.477 222 C 329.194 190.147, 267.076 112.640, 260.107 104.250 C 258.165 101.912, 256.334 100.010, 256.038 100.022 C 255.742 100.033, 253.226 102.846, 250.447 106.272"
        stroke="none" fill="#c3c3c3" fill-rule="evenodd" />
</svg>