<?xml version="1.0" standalone="no"?>
<!DOCTYPE svg PUBLIC "-//W3C//DTD SVG 20010904//EN"
 "http://www.w3.org/TR/2001/REC-SVG-20010904/DTD/svg10.dtd">
<svg version="1.0" xmlns="http://www.w3.org/2000/svg"
 width="512.000000pt" height="512.000000pt" viewBox="0 0 512.000000 512.000000"
 preserveAspectRatio="xMidYMid meet">

<g transform="translate(0.000000,512.000000) scale(0.100000,-0.100000)"
fill="#000000" stroke="none">
<path d="M2490 4681 c-14 -4 -36 -14 -49 -22 -39 -23 -1777 -2200 -1791 -2244
-33 -101 12 -208 109 -257 l55 -28 443 0 443 0 0 -748 c0 -840 -1 -823 69
-893 69 -69 65 -69 791 -69 726 0 722 0 791 69 70 70 69 53 69 893 l0 748 436
0 c298 0 449 4 475 11 112 34 177 165 137 280 -17 48 -1757 2219 -1798 2243
-36 20 -140 30 -180 17z m699 -1332 c342 -427 621 -779 621 -783 0 -3 -187 -6
-415 -6 l-415 0 0 -850 0 -850 -420 0 -420 0 0 850 0 850 -415 0 c-228 0 -415
3 -415 6 0 11 1245 1564 1252 1561 3 -1 286 -351 627 -778z"/>
</g>
</svg>
